<svg xmlns="http://www.w3.org/2000/svg" viewBox="0 0 24 24" id="Docker-Logo--Streamline-Ultimate.svg"><desc>Docker Logo Streamline Icon: https://streamlinehq.com</desc><g><path d="M1.49 7h3s0.5 0 0.5 0.5v3s0 0.5 -0.5 0.5h-3s-0.5 0 -0.5 -0.5v-3s0 -0.5 0.5 -0.5" fill="#000000" stroke-width="1"></path><path d="M6.49 7h3s0.5 0 0.5 0.5v3s0 0.5 -0.5 0.5h-3s-0.5 0 -0.5 -0.5v-3s0 -0.5 0.5 -0.5" fill="#000000" stroke-width="1"></path><path d="M11.49 7h3s0.5 0 0.5 0.5v3s0 0.5 -0.5 0.5h-3s-0.5 0 -0.5 -0.5v-3s0 -0.5 0.5 -0.5" fill="#000000" stroke-width="1"></path><path d="M6.49 1.5h3s0.5 0 0.5 0.5v3s0 0.5 -0.5 0.5h-3s-0.5 0 -0.5 -0.5V2s0 -0.5 0.5 -0.5" fill="#000000" stroke-width="1"></path><path d="M24 10.78a3 3 0 0 0 -3.44 -1.48A3.74 3.74 0 0 0 18.18 6a0.5 0.5 0 0 0 -0.58 0.15 3.84 3.84 0 0 0 -0.13 4.51 2.17 2.17 0 0 1 -0.26 1.5 0.93 0.93 0 0 1 -0.77 0.3H1a1 1 0 0 0 -0.72 0.31 1 1 0 0 0 -0.28 0.73c0.23 5.36 3.84 9 9 9s11 -4 11.48 -9.33a3.1 3.1 0 0 0 3.49 -2 0.49 0.49 0 0 0 0.03 -0.39ZM7 17.5a1 1 0 1 1 1 -1 1 1 0 0 1 -1 1Z" fill="#000000" stroke-width="1"></path></g></svg>