<svg xmlns="http://www.w3.org/2000/svg" viewBox="0 0 24 24" id="Git-Logo--Streamline-Ultimate.svg" height="24" width="24"><desc>Git Logo Streamline Icon: https://streamlinehq.com</desc><path d="M23.55 10.91 13.09 0.45a1.55 1.55 0 0 0 -2.18 0L8.46 2.9 11 5.48a2.06 2.06 0 0 1 1 -0.23 2.25 2.25 0 0 1 2.25 2.25 2.18 2.18 0 0 1 -0.22 1l2.19 2.2a2 2 0 1 1 -1.06 1.06L13 9.52a1 1 0 0 1 -0.21 0.09v5.54a2 2 0 1 1 -1.5 0V9.61A2.24 2.24 0 0 1 9.75 7.5a2.18 2.18 0 0 1 0.22 -1L7.4 4 0.45 11a1.55 1.55 0 0 0 0 2.18l10.46 10.37a1.55 1.55 0 0 0 2.18 0l10.46 -10.46a1.55 1.55 0 0 0 0 -2.18Z" fill="#000000" stroke-width="1"></path></svg>