<svg xmlns="http://www.w3.org/2000/svg" viewBox="0 0 24 24" id="Graphql-Logo--Streamline-Ultimate.svg" height="24" width="24"><desc>GraphQL Logo Streamline Icon: https://streamlinehq.com</desc><path d="M42 28.26V19.74A4.98 4.98 0 0 0 40.5 10a4.92 4.92 0 0 0 -3.28 1.26l-8.38 -5.08a4.66 4.66 0 0 0 0.16 -1.18 5 5 0 0 0 -10 0 4.66 4.66 0 0 0 0.16 1.18L10.78 11.26A4.92 4.92 0 0 0 7.5 10 4.98 4.98 0 0 0 6 19.74v8.52A4.98 4.98 0 0 0 7.5 38a4.92 4.92 0 0 0 3.28 -1.26l8.38 5.08a4.66 4.66 0 0 0 -0.16 1.18 5 5 0 0 0 10 0 4.66 4.66 0 0 0 -0.16 -1.18l8.38 -5.08a4.92 4.92 0 0 0 3.28 1.26 4.98 4.98 0 0 0 1.5 -9.74ZM24 38a4.92 4.92 0 0 0 -3.28 1.26l-8.38 -5.08 0 -0.18H35.6l0 0.18 -8.38 5.08A4.92 4.92 0 0 0 24 38ZM12.5 15a4.66 4.66 0 0 0 -0.16 -1.18l8.28 -5.02 -11.42 19.52 -0.2 0V19.74A4.98 4.98 0 0 0 12.5 15ZM39 19.74v8.52l-0.2 0 -11.42 -19.46 8.28 5.02a4.66 4.66 0 0 0 -0.16 1.18 4.98 4.98 0 0 0 3.5 4.74ZM12 31a5.72 5.72 0 0 0 -0.48 -0.84L23.44 10A4.8 4.8 0 0 0 24 10a4.8 4.8 0 0 0 0.56 0l11.84 20.16a5.72 5.72 0 0 0 -0.48 0.84Z" fill="#000000" stroke-width="1"></path></svg>