<svg xmlns="http://www.w3.org/2000/svg" viewBox="0 0 24 24" id="Jira-Logo--Streamline-Ultimate.svg" height="24" width="24"><desc>Jira Logo Streamline Icon: https://streamlinehq.com</desc><g><path d="M22.5 0h-10a0.5 0.5 0 0 0 -0.5 0.5A4.51 4.51 0 0 0 16.5 5H19v2.5a4.51 4.51 0 0 0 4.5 4.5 0.5 0.5 0 0 0 0.5 -0.5v-10A1.5 1.5 0 0 0 22.5 0Z" fill="#000000" stroke-width="1"></path><path d="M16.5 6h-10a0.5 0.5 0 0 0 -0.5 0.5 4.51 4.51 0 0 0 4.5 4.5H13v2.5a4.51 4.51 0 0 0 4.5 4.5 0.5 0.5 0 0 0 0.5 -0.5v-10A1.5 1.5 0 0 0 16.5 6Z" fill="#000000" stroke-width="1"></path><path d="M10.5 12H0.5a0.5 0.5 0 0 0 -0.5 0.5A4.51 4.51 0 0 0 4.5 17H7v2.5a4.51 4.51 0 0 0 4.5 4.5 0.5 0.5 0 0 0 0.5 -0.5v-10a1.5 1.5 0 0 0 -1.5 -1.5Z" fill="#000000" stroke-width="1"></path></g></svg>