<svg xmlns="http://www.w3.org/2000/svg" viewBox="0 0 24 24" id="Kubernetes-Logo--Streamline-Ultimate.svg" height="24" width="24"><desc>Kubernetes Logo Streamline Icon: https://streamlinehq.com</desc><g><path d="M7.39 14.46a5.06 5.06 0 0 0 1.79 2.2l1.45 -3Z" fill="#000000" stroke-width="1"></path><path d="M11.25 7.61a4.85 4.85 0 0 0 -2.67 1.3L11.25 11Z" fill="#000000" stroke-width="1"></path><path d="M17 13a3.41 3.41 0 0 0 0.05 -0.46 5 5 0 0 0 -0.66 -2.44l-2.67 2.09Z" fill="#000000" stroke-width="1"></path><path d="M15.42 8.91a4.85 4.85 0 0 0 -2.67 -1.3V11Z" fill="#000000" stroke-width="1"></path><path d="M7.66 10.09A5 5 0 0 0 7 12.53a3.41 3.41 0 0 0 0 0.46l3.28 -0.81Z" fill="#000000" stroke-width="1"></path><path d="M21.75 5.21a0.73 0.73 0 0 0 -0.39 -0.5l-9 -4.6a0.81 0.81 0 0 0 -0.68 0l-9 4.6a0.73 0.73 0 0 0 -0.39 0.5L0 15.23a0.75 0.75 0 0 0 0.14 0.63l6.25 7.83A0.77 0.77 0 0 0 7 24h10a0.77 0.77 0 0 0 0.58 -0.28l6.25 -7.83a0.75 0.75 0 0 0 0.14 -0.63ZM20 14.54a0.75 0.75 0 0 1 -0.73 0.56 0.55 0.55 0 0 1 -0.18 0l-1.05 -0.26A6.53 6.53 0 0 1 15.47 18l0.53 1.09a0.75 0.75 0 0 1 -0.35 1 0.78 0.78 0 0 1 -0.33 0.07 0.73 0.73 0 0 1 -0.67 -0.42l-0.52 -1.07a6.42 6.42 0 0 1 -4.24 0l-0.52 1.07a0.74 0.74 0 0 1 -0.67 0.42 0.78 0.78 0 0 1 -0.33 -0.07 0.75 0.75 0 0 1 -0.35 -1L8.53 18a6.58 6.58 0 0 1 -2.61 -3.2l-1 0.26a0.55 0.55 0 0 1 -0.18 0 0.75 0.75 0 0 1 -0.18 -1.47l1 -0.27a5.69 5.69 0 0 1 -0.06 -0.83 6.4 6.4 0 0 1 1 -3.38l-0.9 -0.62a0.76 0.76 0 0 1 0.93 -1.19l0.85 0.7a6.42 6.42 0 0 1 3.87 -1.89V5a0.75 0.75 0 0 1 1.5 0v1.08A6.42 6.42 0 0 1 16.62 8l0.85 -0.67a0.76 0.76 0 0 1 0.93 1.19l-0.86 0.66a6.4 6.4 0 0 1 1 3.38 5.93 5.93 0 0 1 -0.06 0.84l1 0.26a0.75 0.75 0 0 1 0.52 0.88Z" fill="#000000" stroke-width="1"></path><path d="M10.54 17.29a5.07 5.07 0 0 0 1.46 0.24 5.07 5.07 0 0 0 1.46 -0.24l-1.46 -3Z" fill="#000000" stroke-width="1"></path><path d="M14.82 16.66a5.06 5.06 0 0 0 1.79 -2.2l-3.24 -0.81Z" fill="#000000" stroke-width="1"></path></g></svg>