<svg xmlns="http://www.w3.org/2000/svg" viewBox="-0.5 -0.5 16 16" fill="none" stroke="#000000" stroke-linecap="round" stroke-linejoin="round" id="Brand-Sass--Streamline-Tabler.svg" height="16" width="16"><desc>Brand Sass Streamline Icon: https://streamlinehq.com</desc><path d="M0.885 7.5C0.885 12.59225 6.397500000000001 15.774875 10.807500000000001 13.22875C12.8541875 12.047125000000001 14.115 9.8633125 14.115 7.5C14.115 2.40775 8.6025 -0.774875 4.1925 1.77125C2.1458125 2.9528749999999997 0.885 5.1366875 0.885 7.5" stroke-width="1"></path><path d="M7.5 6.4144375C9.308125 5.8073125 10.440000000000001 5.8073125 10.440000000000001 4.8305C10.440000000000001 3.8265 9.449937499999999 3.8265 8.42975 3.8265C7.0259375 3.8265 5.9660625 4.186625 5.095062500000001 5.11125C4.4718124999999995 5.774249999999999 4.34025 6.91125 4.982625 7.541875C5.69775 8.2445625 7.3390625 8.8568125 7.102374999999999 10.109250000000001C6.931125 11.017 6.022625000000001 11.4491875 5.178875 10.992750000000001C4.604125 10.6810625 4.8451875 9.7094375 5.638999999999999 9.146374999999999S7.713125 8.417312500000001 8.6525 8.97C9.37275 9.392625 9.421312499999999 10.237125 8.9714375 10.581875" stroke-width="1"></path></svg>