<svg xmlns="http://www.w3.org/2000/svg" viewBox="0 0 24 24" fill="none" stroke="#000000" stroke-linecap="round" stroke-linejoin="round" id="Brand-Typescript--Streamline-Tabler.svg"><desc>Brand Typescript Streamline Icon: https://streamlinehq.com</desc><path d="M9.705 11.5425C9.9401875 11.7776875 10.2591875 11.91 10.592125 11.91H10.991249999999999C11.498375000000001 11.91 11.91 11.498375000000001 11.91 10.991249999999999V10.807500000000001C11.91 10.198625 11.416375 9.705 10.807500000000001 9.705C10.1985625 9.705 9.705 9.2114375 9.705 8.6025V8.418750000000001C9.705 7.911625 10.116624999999999 7.5 10.623750000000001 7.5H11.022875C11.355812499999999 7.5 11.6748125 7.6323125 11.91 7.8675" stroke-width="1"></path><path d="M5.295 7.5H8.235" stroke-width="1"></path><path d="M6.765 7.5V11.91" stroke-width="1"></path><path d="M14.115 12.645V2.355C14.115 1.5431249999999999 13.456875 0.885 12.645 0.885H2.355C1.5431249999999999 0.8849374999999999 0.885 1.5431249999999999 0.885 2.355V12.645C0.885 13.456875 1.5431249999999999 14.115 2.355 14.115H12.645C13.456875 14.115 14.115 13.456875 14.115 12.645Z" stroke-width="1"></path></svg>